<svg version="1.1" id="Layer_1" xmlns="http://www.w3.org/2000/svg" xmlns:xlink="http://www.w3.org/1999/xlink" x="0px" y="0px"
	 width="100%" viewBox="0 0 1192 701" enable-background="new 0 0 1192 701" xml:space="preserve">
<path fill="#FFFFFF" opacity="1.000000" stroke="none" 
	d="
M1181.000000,702.000000 
	C787.718933,702.000000 394.437897,702.000000 1.078422,702.000000 
	C1.078422,468.416687 1.078422,234.833359 1.078422,1.000000 
	C394.030884,1.000000 787.061829,1.000000 1180.546387,1.466985 
	C1181.000000,235.289307 1181.000000,468.644653 1181.000000,702.000000 
M514.385437,400.570435 
	C519.279907,406.664368 524.174316,412.758270 529.269409,419.506256 
	C534.723511,426.390106 540.177612,433.273956 545.899902,440.798981 
	C552.278687,448.831299 558.657471,456.863647 565.220093,465.554535 
	C571.758606,473.822449 578.297058,482.090363 585.042664,490.984039 
	C590.971985,498.434509 596.901306,505.884979 603.037476,513.962585 
	C607.969910,520.087646 612.902405,526.212708 618.038269,532.969421 
	C622.138611,538.072144 626.239014,543.174866 630.650635,548.909241 
	C632.319336,551.113708 633.988098,553.318176 635.726807,555.615112 
	C633.273010,555.615112 631.149658,555.615112 628.136230,555.287842 
	C621.425293,555.232605 614.714294,555.177429 607.082275,554.933838 
	C599.055725,554.978394 591.029175,555.023010 582.081909,554.876770 
	C574.722839,554.970032 567.363831,555.063293 559.077820,555.004211 
	C550.379578,555.255798 541.681335,555.507324 532.164185,555.479065 
	C522.109924,555.989685 512.055664,556.500244 501.078857,556.842529 
	C495.052765,557.235657 489.026703,557.628784 482.431519,557.663452 
	C483.101379,555.666687 483.696411,553.641113 484.453278,551.677917 
	C489.278839,539.161194 489.933197,526.592102 484.980072,513.223450 
	C481.065399,507.910187 477.150696,502.596924 472.945374,496.721252 
	C467.866302,492.047729 461.790497,489.684875 454.243713,488.636780 
	C445.279266,487.128357 436.534576,487.964630 427.270081,491.101685 
	C418.979584,493.865997 412.036865,498.585175 407.026123,505.775848 
	C402.759338,511.898865 398.036377,517.886963 394.905884,524.584778 
	C385.123352,545.514587 375.396820,566.513367 366.889465,587.977234 
	C362.980530,597.839417 361.118469,608.749146 359.878265,619.364929 
	C358.686035,629.570190 360.574036,639.650208 369.197998,647.793762 
	C375.704834,653.481995 383.605682,655.898743 392.530731,657.837402 
	C399.021454,658.511047 405.512177,659.184753 412.924194,660.031921 
	C418.282257,659.898621 423.640289,659.765320 429.835205,659.756287 
	C435.224640,659.449524 440.614105,659.142761 446.840088,658.834473 
	C453.228851,658.157349 459.617615,657.480225 466.860413,656.908386 
	C476.575256,656.155457 486.290100,655.402527 496.842499,654.777588 
	C505.896149,654.154053 514.949768,653.530457 524.927795,653.052307 
	C532.285950,652.681641 539.644165,652.310974 547.923950,652.121643 
	C555.950500,652.030212 563.977051,651.938782 572.930420,651.992554 
	C579.953796,651.986450 586.977173,651.980347 594.894409,652.194519 
	C600.264282,652.407593 605.634155,652.620667 611.928345,652.982117 
	C618.294556,653.119812 624.660706,653.257446 631.886963,653.705811 
	C642.155151,654.673279 652.506104,655.114868 662.674866,656.714417 
	C685.977173,660.379700 709.195740,664.579773 732.438110,668.621643 
	C749.035034,671.507996 764.381470,669.759338 778.067505,658.580444 
	C795.206909,644.580750 802.102112,624.458740 796.055054,603.303955 
	C792.309814,590.201782 784.572144,579.320862 775.933594,569.179260 
	C758.562378,548.785522 740.851624,528.679260 723.154541,508.565674 
	C714.605896,498.849823 705.770935,489.385925 696.859070,479.165833 
	C692.312622,474.078430 687.766113,468.991058 683.136230,463.192200 
	C678.852234,458.232117 674.568237,453.272034 670.036438,447.731659 
	C665.755737,442.967346 661.475098,438.203033 656.954529,432.846039 
	C651.744202,426.978699 646.533936,421.111328 641.085510,414.657654 
	C634.785889,407.594025 628.486267,400.530426 621.947083,392.872559 
	C615.359985,385.444000 608.772888,378.015442 601.963501,369.977264 
	C595.757385,362.934723 589.551331,355.892212 583.081177,348.214966 
	C577.128479,341.776031 571.175781,335.337097 565.139221,328.190552 
	C560.496338,322.765564 555.853394,317.340607 550.990051,311.266968 
	C546.048645,305.705902 541.107239,300.144867 535.934265,293.978149 
	C531.515137,288.957062 527.096008,283.935974 522.536072,278.754974 
	C528.255188,277.057953 533.153137,275.604584 538.849060,274.167053 
	C549.903381,271.124237 560.957703,268.081421 572.813721,265.066681 
	C582.209534,262.682770 591.605286,260.298828 601.794250,257.905273 
	C611.200989,255.618790 620.607727,253.332306 630.831970,251.103210 
	C638.233887,249.449341 645.635803,247.795471 653.867249,246.175552 
	C657.771606,245.537186 661.675903,244.898834 665.995850,244.192520 
	C665.318359,245.524033 664.764954,246.505341 664.306458,247.529144 
	C659.211548,258.906799 653.450623,270.046906 649.254272,281.747742 
	C645.643738,291.815308 644.328918,302.495392 650.969604,313.041992 
	C657.018066,320.865540 664.809387,325.354828 675.525085,325.755585 
	C686.394104,325.406372 693.868469,318.813110 699.202820,310.655701 
	C709.734802,294.549774 719.178833,277.732452 729.642883,260.833160 
	C731.256531,258.718658 732.883850,256.614380 734.481567,254.487961 
	C746.457703,238.548706 758.781128,222.854309 770.273987,206.573700 
	C777.721130,196.024063 781.441467,184.045609 779.382751,170.749786 
	C778.240845,163.374390 774.214355,157.707901 769.305054,151.678360 
	C762.896484,144.801910 755.641968,139.366669 745.202332,137.872849 
	C736.135742,137.604126 727.069092,137.335388 717.140137,136.940369 
	C708.425232,138.598099 699.710266,140.255844 690.152649,141.861465 
	C683.100891,143.237686 676.049194,144.613907 668.160278,145.865479 
	C658.440491,147.924088 648.720764,149.982681 638.178894,151.962250 
	C629.120361,153.999466 620.061768,156.036667 610.205322,158.000214 
	C599.431030,160.530014 588.656799,163.059814 577.059082,165.644989 
	C571.991943,166.877808 566.924805,168.110641 561.014832,169.418823 
	C553.010620,171.299149 545.006409,173.179459 536.186218,174.983078 
	C526.791809,177.019028 517.397400,179.054977 507.208771,181.014648 
	C498.139191,183.343201 489.069580,185.671753 479.207672,187.956436 
	C461.676392,192.081757 445.536499,199.080292 431.396851,210.485825 
	C422.117950,217.970474 416.334869,227.564545 415.122070,239.212311 
	C412.594971,263.482452 421.063477,284.495941 436.024078,303.967865 
	C441.214111,310.688354 446.404144,317.408844 451.885406,324.763275 
	C458.206055,332.197235 464.526703,339.631195 471.119690,347.684875 
	C476.316559,353.497803 481.513428,359.310760 486.968475,365.763458 
	C491.938354,371.933960 496.908234,378.104492 502.070221,384.907318 
	C506.106903,389.917908 510.143616,394.928497 514.385437,400.570435 
z"/>
<path fill="#F7F7F7" opacity="1.000000" stroke="none" 
	d="
M1181.476074,702.000000 
	C1181.000000,468.644653 1181.000000,235.289307 1181.000000,1.466985 
	C1184.997559,1.000000 1188.994995,1.000000 1192.972656,1.000000 
	C1192.972656,234.666672 1192.972656,468.333344 1192.972656,702.000000 
	C1189.280884,702.000000 1185.616577,702.000000 1181.476074,702.000000 
z"/>
<path fill="#03033F" opacity="1.000000" stroke="none" 
	d="
M697.065552,479.807953 
	C705.770935,489.385925 714.605896,498.849823 723.154541,508.565674 
	C740.851624,528.679260 758.562378,548.785522 775.933594,569.179260 
	C784.572144,579.320862 792.309814,590.201782 796.055054,603.303955 
	C802.102112,624.458740 795.206909,644.580750 778.067505,658.580444 
	C764.381470,669.759338 749.035034,671.507996 732.438110,668.621643 
	C709.195740,664.579773 685.977173,660.379700 662.674866,656.714417 
	C652.506104,655.114868 642.155151,654.673279 631.467041,653.202209 
	C635.383789,641.224060 639.679688,629.733826 644.065125,618.278015 
	C654.739319,590.394226 665.469727,562.532043 676.148926,534.650208 
	C683.146973,516.379272 690.095093,498.089325 697.065552,479.807953 
z"/>
<path fill="#033061" opacity="1.000000" stroke="none" 
	d="
M674.856689,325.528290 
	C664.809387,325.354828 657.018066,320.865540 651.049438,312.374268 
	C652.046997,310.133728 653.200073,308.651642 653.846558,306.974304 
	C661.605835,286.840607 669.267639,266.669342 676.999634,246.525040 
	C687.884460,218.166397 698.875854,189.848404 709.669312,161.455109 
	C712.720276,153.429489 715.239441,145.201721 718.002563,137.066681 
	C727.069092,137.335388 736.135742,137.604126 745.559814,138.310272 
	C742.574219,147.582382 739.267090,156.430862 735.881104,165.249115 
	C726.317322,190.156891 716.704712,215.045944 707.144287,239.955017 
	C701.324646,255.117706 695.526733,270.288971 689.791565,285.483704 
	C684.760803,298.812134 679.831055,312.178619 674.856689,325.528290 
z"/>
<path fill="#042458" opacity="1.000000" stroke="none" 
	d="
M675.190918,325.641937 
	C679.831055,312.178619 684.760803,298.812134 689.791565,285.483704 
	C695.526733,270.288971 701.324646,255.117706 707.144287,239.955017 
	C716.704712,215.045944 726.317322,190.156891 735.881104,165.249115 
	C739.267090,156.430862 742.574219,147.582382 745.958618,138.373199 
	C755.641968,139.366669 762.896484,144.801910 769.206665,152.321167 
	C764.563110,164.330231 759.906799,175.653564 755.498169,187.072556 
	C748.525879,205.131958 741.586182,223.206497 734.914429,241.378067 
	C732.544312,247.833221 730.996094,254.590118 729.072754,261.209290 
	C719.178833,277.732452 709.734802,294.549774 699.202820,310.655701 
	C693.868469,318.813110 686.394104,325.406372 675.190918,325.641937 
z"/>
<path fill="#067395" opacity="1.000000" stroke="none" 
	d="
M537.002197,175.059769 
	C545.006409,173.179459 553.010620,171.299149 561.466675,169.810577 
	C561.610046,171.474869 561.434937,172.798126 560.973328,174.012451 
	C552.662903,195.874252 544.230652,217.690155 536.012512,239.586441 
	C530.893677,253.225098 526.280579,267.054596 521.098022,280.668030 
	C512.186951,304.075287 503.089142,327.412567 493.877289,350.703125 
	C491.910126,355.676819 489.120850,360.325378 486.710297,365.123718 
	C481.513428,359.310760 476.316559,353.497803 471.285156,347.175537 
	C473.316467,342.074249 475.243805,337.506195 477.037781,332.886322 
	C486.209106,309.268494 495.388977,285.653809 504.480988,262.005432 
	C511.434265,243.920074 518.315552,225.806580 525.123779,207.666138 
	C529.188110,196.836700 533.049561,185.931122 537.002197,175.059769 
z"/>
<path fill="#067E9E" opacity="1.000000" stroke="none" 
	d="
M536.594238,175.021423 
	C533.049561,185.931122 529.188110,196.836700 525.123779,207.666138 
	C518.315552,225.806580 511.434265,243.920074 504.480988,262.005432 
	C495.388977,285.653809 486.209106,309.268494 477.037781,332.886322 
	C475.243805,337.506195 473.316467,342.074249 471.148987,346.865692 
	C464.526703,339.631195 458.206055,332.197235 452.131226,324.386841 
	C453.257812,323.141388 454.520020,322.430328 454.956146,321.377197 
	C457.426971,315.410675 459.723511,309.371277 462.036438,303.340240 
	C473.779083,272.720581 485.570526,242.119461 497.207306,211.459625 
	C501.018738,201.417511 504.416199,191.218277 508.002991,181.090912 
	C517.397400,179.054977 526.791809,177.019028 536.594238,175.021423 
z"/>
<path fill="#066E91" opacity="1.000000" stroke="none" 
	d="
M428.005066,491.096283 
	C436.534576,487.964630 445.279266,487.128357 454.581360,489.184265 
	C446.898895,510.838104 438.894043,531.950256 430.854828,553.049316 
	C420.509674,580.200439 410.083374,607.320801 399.810730,634.499268 
	C396.949249,642.069946 394.507263,649.799255 391.872803,657.455811 
	C383.605682,655.898743 375.704834,653.481995 369.208435,647.161133 
	C369.768097,645.701721 370.491547,644.942444 370.840973,644.038452 
	C378.962219,623.031433 387.068756,602.018494 395.124084,580.986084 
	C403.891449,558.094360 412.698059,535.216797 421.284088,512.257080 
	C423.873138,505.333893 425.783691,498.156952 428.005066,491.096283 
z"/>
<path fill="#020D46" opacity="1.000000" stroke="none" 
	d="
M696.962280,479.486877 
	C690.095093,498.089325 683.146973,516.379272 676.148926,534.650208 
	C665.469727,562.532043 654.739319,590.394226 644.065125,618.278015 
	C639.679688,629.733826 635.383789,641.224060 631.037048,653.046875 
	C624.660706,653.257446 618.294556,653.119812 611.465942,652.516602 
	C612.975464,646.094238 614.722900,640.051697 616.959656,634.195984 
	C625.236511,612.528198 633.714050,590.937134 642.043091,569.289185 
	C653.823120,538.671509 665.510681,508.018250 677.310791,477.408356 
	C679.076477,472.828186 681.240112,468.401398 683.219666,463.903656 
	C687.766113,468.991058 692.312622,474.078430 696.962280,479.486877 
z"/>
<path fill="#0793AE" opacity="1.000000" stroke="none" 
	d="
M435.821899,303.337463 
	C421.063477,284.495941 412.594971,263.482452 415.122070,239.212311 
	C416.334869,227.564545 422.117950,217.970474 431.396851,210.485825 
	C445.536499,199.080292 461.676392,192.081757 479.597412,188.366257 
	C479.689331,189.892410 479.489502,191.046188 479.079407,192.119614 
	C468.365662,220.160980 457.678925,248.212860 446.870361,276.217682 
	C443.356293,285.322754 439.514069,294.301147 435.821899,303.337463 
z"/>
<path fill="#05648A" opacity="1.000000" stroke="none" 
	d="
M392.201782,657.646606 
	C394.507263,649.799255 396.949249,642.069946 399.810730,634.499268 
	C410.083374,607.320801 420.509674,580.200439 430.854828,553.049316 
	C438.894043,531.950256 446.898895,510.838104 454.959229,489.355835 
	C461.790497,489.684875 467.866302,492.047729 473.013855,497.421509 
	C465.666748,517.463623 458.250732,536.805237 450.835754,556.147278 
	C440.869049,582.145569 430.838409,608.119568 420.973969,634.156616 
	C417.760193,642.639282 414.980865,651.286438 412.002899,659.858398 
	C405.512177,659.184753 399.021454,658.511047 392.201782,657.646606 
z"/>
<path fill="#03144C" opacity="1.000000" stroke="none" 
	d="
M683.177979,463.547913 
	C681.240112,468.401398 679.076477,472.828186 677.310791,477.408356 
	C665.510681,508.018250 653.823120,538.671509 642.043091,569.289185 
	C633.714050,590.937134 625.236511,612.528198 616.959656,634.195984 
	C614.722900,640.051697 612.975464,646.094238 611.003784,652.442383 
	C605.634155,652.620667 600.264282,652.407593 594.447998,651.682617 
	C594.666992,648.615906 595.095032,645.970154 596.034607,643.520569 
	C605.354614,619.223267 614.803589,594.975281 624.103027,570.670105 
	C625.987427,565.744873 627.397461,560.638184 629.026245,555.615112 
	C631.149658,555.615112 633.273010,555.615112 635.726807,555.615112 
	C633.988098,553.318176 632.319336,551.113708 630.868835,548.441040 
	C631.977234,546.445374 633.091614,545.004761 633.721985,543.376709 
	C638.565979,530.866089 643.286804,518.307922 648.101990,505.786072 
	C655.472534,486.618958 662.887939,467.469086 670.284302,448.311951 
	C674.568237,453.272034 678.852234,458.232117 683.177979,463.547913 
z"/>
<path fill="#043A69" opacity="1.000000" stroke="none" 
	d="
M717.571350,137.003525 
	C715.239441,145.201721 712.720276,153.429489 709.669312,161.455109 
	C698.875854,189.848404 687.884460,218.166397 676.999634,246.525040 
	C669.267639,266.669342 661.605835,286.840607 653.846558,306.974304 
	C653.200073,308.651642 652.046997,310.133728 650.974426,312.051208 
	C644.328918,302.495392 645.643738,291.815308 649.254272,281.747742 
	C653.450623,270.046906 659.211548,258.906799 664.306458,247.529144 
	C664.764954,246.505341 665.318359,245.524033 665.995850,244.192520 
	C661.675903,244.898834 657.771606,245.537186 653.446899,245.759369 
	C654.656738,240.838638 656.227173,236.311386 657.927185,231.833344 
	C666.807922,208.440125 675.792603,185.086044 684.577576,161.657043 
	C687.004761,155.183853 688.871460,148.500488 690.995361,141.913574 
	C699.710266,140.255844 708.425232,138.598099 717.571350,137.003525 
z"/>
<path fill="#066E91" opacity="1.000000" stroke="none" 
	d="
M486.839386,365.443604 
	C489.120850,360.325378 491.910126,355.676819 493.877289,350.703125 
	C503.089142,327.412567 512.186951,304.075287 521.098022,280.668030 
	C526.280579,267.054596 530.893677,253.225098 536.012512,239.586441 
	C544.230652,217.690155 552.662903,195.874252 560.973328,174.012451 
	C561.434937,172.798126 561.610046,171.474869 561.888062,169.772888 
	C566.924805,168.110641 571.991943,166.877808 577.501587,166.045197 
	C577.863953,167.433685 578.007812,168.506821 577.670532,169.397842 
	C570.150024,189.267746 562.548828,209.107132 555.021729,228.974564 
	C549.322510,244.017410 543.705017,259.091217 538.051147,274.151215 
	C533.153137,275.604584 528.255188,277.057953 522.536072,278.754974 
	C527.096008,283.935974 531.515137,288.957062 535.906982,294.642456 
	C535.362488,296.347443 534.758484,297.354584 534.340759,298.433838 
	C526.933716,317.569611 519.486084,336.690063 512.186890,355.867004 
	C508.603943,365.280487 505.305389,374.802246 501.878113,384.275024 
	C496.908234,378.104492 491.938354,371.933960 486.839386,365.443604 
z"/>
<path fill="#0689A6" opacity="1.000000" stroke="none" 
	d="
M435.922974,303.652649 
	C439.514069,294.301147 443.356293,285.322754 446.870361,276.217682 
	C457.678925,248.212860 468.365662,220.160980 479.079407,192.119614 
	C479.489502,191.046188 479.689331,189.892410 479.993591,188.388184 
	C489.069580,185.671753 498.139191,183.343201 507.605896,181.052780 
	C504.416199,191.218277 501.018738,201.417511 497.207306,211.459625 
	C485.570526,242.119461 473.779083,272.720581 462.036438,303.340240 
	C459.723511,309.371277 457.426971,315.410675 454.956146,321.377197 
	C454.520020,322.430328 453.257812,323.141388 451.985657,324.069885 
	C446.404144,317.408844 441.214111,310.688354 435.922974,303.652649 
z"/>
<path fill="#05648A" opacity="1.000000" stroke="none" 
	d="
M538.450073,274.159119 
	C543.705017,259.091217 549.322510,244.017410 555.021729,228.974564 
	C562.548828,209.107132 570.150024,189.267746 577.670532,169.397842 
	C578.007812,168.506821 577.863953,167.433685 577.913330,166.017502 
	C588.656799,163.059814 599.431030,160.530014 610.602661,158.446106 
	C610.648804,160.833450 610.595337,162.889099 609.901245,164.699081 
	C600.649109,188.827347 591.239990,212.895508 582.022034,237.036743 
	C578.487000,246.294937 575.337341,255.700317 572.012024,265.038635 
	C560.957703,268.081421 549.903381,271.124237 538.450073,274.159119 
z"/>
<path fill="#07799A" opacity="1.000000" stroke="none" 
	d="
M427.637573,491.098999 
	C425.783691,498.156952 423.873138,505.333893 421.284088,512.257080 
	C412.698059,535.216797 403.891449,558.094360 395.124084,580.986084 
	C387.068756,602.018494 378.962219,623.031433 370.840973,644.038452 
	C370.491547,644.942444 369.768097,645.701721 369.061829,646.859680 
	C360.574036,639.650208 358.686035,629.570190 359.878265,619.364929 
	C361.118469,608.749146 362.980530,597.839417 366.889465,587.977234 
	C375.396820,566.513367 385.123352,545.514587 394.905884,524.584778 
	C398.036377,517.886963 402.759338,511.898865 407.026123,505.775848 
	C412.036865,498.585175 418.979584,493.865997 427.637573,491.098999 
z"/>
<path fill="#054672" opacity="1.000000" stroke="none" 
	d="
M496.004944,654.649597 
	C486.290100,655.402527 476.575256,656.155457 466.432434,656.457520 
	C466.236389,654.554138 466.221771,653.007141 466.736542,651.662903 
	C477.375610,623.881409 488.110901,596.136780 498.718445,568.343323 
	C500.115997,564.681580 500.921692,560.793884 502.001434,557.010864 
	C512.055664,556.500244 522.109924,555.989685 532.490234,555.936279 
	C524.639587,577.770813 516.389099,599.120300 508.316284,620.536804 
	C504.052734,631.847473 500.098724,643.274902 496.004944,654.649597 
z"/>
<path fill="#054F7A" opacity="1.000000" stroke="none" 
	d="
M639.000977,152.041290 
	C648.720764,149.982681 658.440491,147.924088 668.537842,146.303833 
	C659.205811,172.315292 649.443542,197.868607 639.814636,223.472107 
	C636.381531,232.600769 633.271790,241.851044 630.014465,251.045822 
	C620.607727,253.332306 611.200989,255.618790 601.397095,257.501678 
	C601.351929,255.153778 601.407776,253.096329 602.100647,251.282227 
	C611.749756,226.019897 621.569458,200.822464 631.151001,175.534714 
	C634.074219,167.819748 636.401001,159.878769 639.000977,152.041290 
z"/>
<path fill="#043A69" opacity="1.000000" stroke="none" 
	d="
M602.185791,370.586914 
	C608.772888,378.015442 615.359985,385.444000 621.933228,393.539948 
	C617.599243,405.168854 613.202454,416.100922 608.975403,427.098206 
	C600.877869,448.165314 592.876709,469.269501 584.835571,490.358276 
	C578.297058,482.090363 571.758606,473.822449 565.165588,464.868652 
	C573.021790,443.827576 580.865356,423.445984 588.870117,403.127899 
	C593.165771,392.224579 597.738281,381.430359 602.185791,370.586914 
z"/>
<path fill="#055880" opacity="1.000000" stroke="none" 
	d="
M638.589966,152.001770 
	C636.401001,159.878769 634.074219,167.819748 631.151001,175.534714 
	C621.569458,200.822464 611.749756,226.019897 602.100647,251.282227 
	C601.407776,253.096329 601.351929,255.153778 601.000488,257.506500 
	C591.605286,260.298828 582.209534,262.682770 572.412842,265.052673 
	C575.337341,255.700317 578.487000,246.294937 582.022034,237.036743 
	C591.239990,212.895508 600.649109,188.827347 609.901245,164.699081 
	C610.595337,162.889099 610.648804,160.833450 611.001648,158.482941 
	C620.061768,156.036667 629.120361,153.999466 638.589966,152.001770 
z"/>
<path fill="#043A69" opacity="1.000000" stroke="none" 
	d="
M496.423737,654.713623 
	C500.098724,643.274902 504.052734,631.847473 508.316284,620.536804 
	C516.389099,599.120300 524.639587,577.770813 532.899658,556.076172 
	C541.681335,555.507324 550.379578,555.255798 559.538574,555.472168 
	C559.683838,557.388794 559.542419,558.902710 559.026428,560.276001 
	C553.015747,576.273743 546.945740,592.249329 540.897156,608.232849 
	C535.262329,623.122925 529.634338,638.015442 524.003418,652.906860 
	C514.949768,653.530457 505.896149,654.154053 496.423737,654.713623 
z"/>
<path fill="#033061" opacity="1.000000" stroke="none" 
	d="
M584.939087,490.671143 
	C592.876709,469.269501 600.877869,448.165314 608.975403,427.098206 
	C613.202454,416.100922 617.599243,405.168854 622.052979,393.837067 
	C628.486267,400.530426 634.785889,407.594025 641.051880,415.334473 
	C634.874390,431.604889 628.712708,447.191498 622.591370,462.793945 
	C615.984741,479.633423 609.415894,496.487640 602.830566,513.335449 
	C596.901306,505.884979 590.971985,498.434509 584.939087,490.671143 
z"/>
<path fill="#054672" opacity="1.000000" stroke="none" 
	d="
M602.074707,370.282104 
	C597.738281,381.430359 593.165771,392.224579 588.870117,403.127899 
	C580.865356,423.445984 573.021790,443.827576 565.073669,464.539368 
	C558.657471,456.863647 552.278687,448.831299 546.091431,440.295105 
	C547.091187,438.354218 548.096985,436.992554 548.678467,435.468933 
	C558.518188,409.686615 568.251587,383.863495 578.170654,358.111847 
	C579.429016,354.844788 581.598083,351.928497 583.345215,348.849670 
	C589.551331,355.892212 595.757385,362.934723 602.074707,370.282104 
z"/>
<path fill="#055D84" opacity="1.000000" stroke="none" 
	d="
M412.463562,659.945190 
	C414.980865,651.286438 417.760193,642.639282 420.973969,634.156616 
	C430.838409,608.119568 440.869049,582.145569 450.835754,556.147278 
	C458.250732,536.805237 465.666748,517.463623 473.159180,497.702728 
	C477.150696,502.596924 481.065399,507.910187 484.810547,513.868958 
	C483.845398,515.549561 482.759369,516.470825 482.301575,517.638367 
	C479.455750,524.895691 476.784607,532.221313 473.993347,539.500366 
	C461.579529,571.872864 449.084656,604.214478 436.762054,636.621643 
	C433.887085,644.182617 431.571381,651.956177 428.998352,659.631958 
	C423.640289,659.765320 418.282257,659.898621 412.463562,659.945190 
z"/>
<path fill="#042458" opacity="1.000000" stroke="none" 
	d="
M583.002625,555.067566 
	C591.029175,555.023010 599.055725,554.978394 607.534424,555.407837 
	C607.679688,556.997559 607.463379,558.147705 607.052795,559.223755 
	C598.057800,582.799622 589.017395,606.358154 580.042847,629.941772 
	C577.276733,637.210754 574.678650,644.543701 572.003540,651.847412 
	C563.977051,651.938782 555.950500,652.030212 547.469360,651.648071 
	C548.383301,647.461121 549.715881,643.734070 551.126282,640.036682 
	C558.850647,619.787048 566.641663,599.562561 574.307495,579.290833 
	C577.341492,571.267700 580.112061,563.144958 583.002625,555.067566 
z"/>
<path fill="#054F7A" opacity="1.000000" stroke="none" 
	d="
M583.213196,348.532318 
	C581.598083,351.928497 579.429016,354.844788 578.170654,358.111847 
	C568.251587,383.863495 558.518188,409.686615 548.678467,435.468933 
	C548.096985,436.992554 547.091187,438.354218 545.957275,439.974548 
	C540.177612,433.273956 534.723511,426.390106 529.314148,418.866943 
	C530.166565,416.583801 531.111145,414.992218 531.761292,413.288269 
	C540.578247,390.181946 549.283875,367.032776 558.194641,343.962860 
	C560.186523,338.805756 562.862244,333.912781 565.223083,328.898193 
	C571.175781,335.337097 577.128479,341.776031 583.213196,348.532318 
z"/>
<path fill="#042458" opacity="1.000000" stroke="none" 
	d="
M602.934021,513.649048 
	C609.415894,496.487640 615.984741,479.633423 622.591370,462.793945 
	C628.712708,447.191498 634.874390,431.604889 641.170959,415.627625 
	C646.533936,421.111328 651.744202,426.978699 656.935791,433.509216 
	C656.228394,435.478333 655.401550,436.730743 654.871826,438.098236 
	C646.558105,459.558563 638.340881,481.056427 629.972839,502.495422 
	C626.068665,512.498230 621.889404,522.393677 617.834839,532.337769 
	C612.902405,526.212708 607.969910,520.087646 602.934021,513.649048 
z"/>
<path fill="#054672" opacity="1.000000" stroke="none" 
	d="
M630.423218,251.074524 
	C633.271790,241.851044 636.381531,232.600769 639.814636,223.472107 
	C649.443542,197.868607 659.205811,172.315292 668.956421,146.366150 
	C676.049194,144.613907 683.100891,143.237686 690.573975,141.887512 
	C688.871460,148.500488 687.004761,155.183853 684.577576,161.657043 
	C675.792603,185.086044 666.807922,208.440125 657.927185,231.833344 
	C656.227173,236.311386 654.656738,240.838638 653.032104,245.742401 
	C645.635803,247.795471 638.233887,249.449341 630.423218,251.074524 
z"/>
<path fill="#033061" opacity="1.000000" stroke="none" 
	d="
M582.542236,554.972168 
	C580.112061,563.144958 577.341492,571.267700 574.307495,579.290833 
	C566.641663,599.562561 558.850647,619.787048 551.126282,640.036682 
	C549.715881,643.734070 548.383301,647.461121 547.008545,651.557373 
	C539.644165,652.310974 532.285950,652.681641 524.465576,652.979614 
	C529.634338,638.015442 535.262329,623.122925 540.897156,608.232849 
	C546.945740,592.249329 553.015747,576.273743 559.026428,560.276001 
	C559.542419,558.902710 559.683838,557.388794 560.002014,555.548340 
	C567.363831,555.063293 574.722839,554.970032 582.542236,554.972168 
z"/>
<path fill="#055880" opacity="1.000000" stroke="none" 
	d="
M429.416779,659.694092 
	C431.571381,651.956177 433.887085,644.182617 436.762054,636.621643 
	C449.084656,604.214478 461.579529,571.872864 473.993347,539.500366 
	C476.784607,532.221313 479.455750,524.895691 482.301575,517.638367 
	C482.759369,516.470825 483.845398,515.549561 484.837555,514.222900 
	C489.933197,526.592102 489.278839,539.161194 484.453278,551.677917 
	C483.696411,553.641113 483.101379,555.666687 482.673431,558.215576 
	C471.547852,588.649658 460.148560,618.519531 448.857239,648.430237 
	C447.592468,651.780457 446.939972,655.361816 446.003540,658.835999 
	C440.614105,659.142761 435.224640,659.449524 429.416779,659.694092 
z"/>
<path fill="#031C52" opacity="1.000000" stroke="none" 
	d="
M572.466980,651.919983 
	C574.678650,644.543701 577.276733,637.210754 580.042847,629.941772 
	C589.017395,606.358154 598.057800,582.799622 607.052795,559.223755 
	C607.463379,558.147705 607.679688,556.997559 607.994934,555.502075 
	C614.714294,555.177429 621.425293,555.232605 628.581238,555.451477 
	C627.397461,560.638184 625.987427,565.744873 624.103027,570.670105 
	C614.803589,594.975281 605.354614,619.223267 596.034607,643.520569 
	C595.095032,645.970154 594.666992,648.615906 594.001099,651.572449 
	C586.977173,651.980347 579.953796,651.986450 572.466980,651.919983 
z"/>
<path fill="#055D84" opacity="1.000000" stroke="none" 
	d="
M565.181152,328.544373 
	C562.862244,333.912781 560.186523,338.805756 558.194641,343.962860 
	C549.283875,367.032776 540.578247,390.181946 531.761292,413.288269 
	C531.111145,414.992218 530.166565,416.583801 529.213867,418.539917 
	C524.174316,412.758270 519.279907,406.664368 514.578186,400.080994 
	C517.241638,393.652588 519.835144,387.761261 522.161072,381.766083 
	C530.729614,359.680634 539.175598,337.547577 547.802002,315.484924 
	C548.356201,314.067596 550.047913,313.095062 551.210510,311.915619 
	C555.853394,317.340607 560.496338,322.765564 565.181152,328.544373 
z"/>
<path fill="#031C52" opacity="1.000000" stroke="none" 
	d="
M617.936523,532.653564 
	C621.889404,522.393677 626.068665,512.498230 629.972839,502.495422 
	C638.340881,481.056427 646.558105,459.558563 654.871826,438.098236 
	C655.401550,436.730743 656.228394,435.478333 657.055786,433.805573 
	C661.475098,438.203033 665.755737,442.967346 670.160400,448.021790 
	C662.887939,467.469086 655.472534,486.618958 648.101990,505.786072 
	C643.286804,518.307922 638.565979,530.866089 633.721985,543.376709 
	C633.091614,545.004761 631.977234,546.445374 630.713257,548.125183 
	C626.239014,543.174866 622.138611,538.072144 617.936523,532.653564 
z"/>
<path fill="#054F7A" opacity="1.000000" stroke="none" 
	d="
M446.421814,658.835205 
	C446.939972,655.361816 447.592468,651.780457 448.857239,648.430237 
	C460.148560,618.519531 471.547852,588.649658 482.957977,558.394836 
	C489.026703,557.628784 495.052765,557.235657 501.540161,556.926697 
	C500.921692,560.793884 500.115997,564.681580 498.718445,568.343323 
	C488.110901,596.136780 477.375610,623.881409 466.736542,651.662903 
	C466.221771,653.007141 466.236389,654.554138 466.005432,656.404907 
	C459.617615,657.480225 453.228851,658.157349 446.421814,658.835205 
z"/>
<path fill="#05648A" opacity="1.000000" stroke="none" 
	d="
M551.100281,311.591309 
	C550.047913,313.095062 548.356201,314.067596 547.802002,315.484924 
	C539.175598,337.547577 530.729614,359.680634 522.161072,381.766083 
	C519.835144,387.761261 517.241638,393.652588 514.475586,399.765320 
	C510.143616,394.928497 506.106903,389.917908 501.974182,384.591187 
	C505.305389,374.802246 508.603943,365.280487 512.186890,355.867004 
	C519.486084,336.690063 526.933716,317.569611 534.340759,298.433838 
	C534.758484,297.354584 535.362488,296.347443 536.022827,294.945251 
	C541.107239,300.144867 546.048645,305.705902 551.100281,311.591309 
z"/>
<path fill="#031C52" opacity="1.000000" stroke="none" 
	d="
M729.357788,261.021240 
	C730.996094,254.590118 732.544312,247.833221 734.914429,241.378067 
	C741.586182,223.206497 748.525879,205.131958 755.498169,187.072556 
	C759.906799,175.653564 764.563110,164.330231 769.368774,152.604568 
	C774.214355,157.707901 778.240845,163.374390 779.382751,170.749786 
	C781.441467,184.045609 777.721130,196.024063 770.273987,206.573700 
	C758.781128,222.854309 746.457703,238.548706 734.481567,254.487961 
	C732.883850,256.614380 731.256531,258.718658 729.357788,261.021240 
z"/>
</svg>